# xmcd
#
# Track frame offsets: 
#        150
#        19132
#        34284
#        52804
#        70056
#        90038
#        108830
#        129024
#        146349
#        169643
#        187111
#        210082
#        231083
#        259850
#        288297
#        303086
#        322743
#        340743
#
# Disc length: 4750 seconds
#
# Revision: 0
# Processed by: cddbd v1.5.2PL0 Copyright (c) Steve Scherf et al.
# Submitted via: ExactAudioCopy v1.3
#
DISCID=dc128c12
DTITLE=Various Artist - Akella Presents - vol. 183 - Rockin' Blues  C
DTITLE=D1
DYEAR=2019
DGENRE=Blues
TTITLE0=Blues Cousins - Lose You
TTITLE1=Catfish - Hit the Ground Running
TTITLE2=Bluescorp - Welcome to My World
TTITLE3=Marc Amacher - Down With The Blues
TTITLE4=Lol Goodman Band - I Just Want To Say
TTITLE5=Tom Euler - Fool Me Once
TTITLE6=Sidetrackers - Time Likes To Slip Away
TTITLE7=Peer Gynt - Waiting For The Devil
TTITLE8=Billy Hector - Butt Naked and Funk
TTITLE9=Toler Brothers - I've Been Down So Long
TTITLE10=Snowy White - The Situation
TTITLE11=Bobby Messano - Hard World
TTITLE12=Bad Bob Bates - Broken Bottles And Broken Bones
TTITLE13=Dave Steffen Band - You're The Star
TTITLE14=Dickie Peltier - 25 Miles From Texas
TTITLE15=Billy C. Farlow - Sake Eyes
TTITLE16=Uni Debess - The Sky is Crying
TTITLE17=Robert Jon and the Wreck - Makes Me Wanna Yell
EXTD=
EXTT0=
EXTT1=
EXTT2=
EXTT3=
EXTT4=
EXTT5=
EXTT6=
EXTT7=
EXTT8=
EXTT9=
EXTT10=
EXTT11=
EXTT12=
EXTT13=
EXTT14=
EXTT15=
EXTT16=
EXTT17=
PLAYORDER=
